# Tiled2Unity generated file. Do not modify by hand.
# Wavefront file for 'Lv1Tiles_mesh_0003.obj'

# Vertices (Count = 120)
v -2944 -2688 0
v -3072 -2688 0
v -3072 -2560 0
v -2944 -2560 0
v -3200 -2816 0
v -3328 -2816 0
v -3328 -2688 0
v -3200 -2688 0
v -5760 -2816 0
v -5888 -2816 0
v -5888 -2688 0
v -5760 -2688 0
v -6272 -2816 0
v -6400 -2816 0
v -6400 -2688 0
v -6272 -2688 0
v -7040 -2816 0
v -7168 -2816 0
v -7168 -2688 0
v -7040 -2688 0
v -7424 -2816 0
v -7552 -2816 0
v -7552 -2688 0
v -7424 -2688 0
v -1792 -2944 0
v -1920 -2944 0
v -1920 -2816 0
v -1792 -2816 0
v -5504 -2944 0
v -5632 -2944 0
v -5632 -2816 0
v -5504 -2816 0
v -5760 -2944 0
v -5888 -2944 0
v -5888 -2816 0
v -5760 -2816 0
v -5888 -2944 0
v -6016 -2944 0
v -6016 -2816 0
v -5888 -2816 0
v -6016 -2944 0
v -6144 -2944 0
v -6144 -2816 0
v -6016 -2816 0
v -6272 -2944 0
v -6400 -2944 0
v -6400 -2816 0
v -6272 -2816 0
v -6528 -2944 0
v -6656 -2944 0
v -6656 -2816 0
v -6528 -2816 0
v -6656 -2944 0
v -6784 -2944 0
v -6784 -2816 0
v -6656 -2816 0
v -6784 -2944 0
v -6912 -2944 0
v -6912 -2816 0
v -6784 -2816 0
v -6912 -2944 0
v -7040 -2944 0
v -7040 -2816 0
v -6912 -2816 0
v -7040 -2944 0
v -7168 -2944 0
v -7168 -2816 0
v -7040 -2816 0
v -7296 -2944 0
v -7424 -2944 0
v -7424 -2816 0
v -7296 -2816 0
v -7552 -2944 0
v -7680 -2944 0
v -7680 -2816 0
v -7552 -2816 0
v -1408 -3072 0
v -1536 -3072 0
v -1536 -2944 0
v -1408 -2944 0
v -1920 -3072 0
v -2048 -3072 0
v -2048 -2944 0
v -1920 -2944 0
v -5632 -3072 0
v -5760 -3072 0
v -5760 -2944 0
v -5632 -2944 0
v -6144 -3072 0
v -6272 -3072 0
v -6272 -2944 0
v -6144 -2944 0
v -6656 -3072 0
v -6784 -3072 0
v -6784 -2944 0
v -6656 -2944 0
v -7168 -3072 0
v -7296 -3072 0
v -7296 -2944 0
v -7168 -2944 0
v -7424 -3072 0
v -7552 -3072 0
v -7552 -2944 0
v -7424 -2944 0
v -5888 -3200 0
v -6016 -3200 0
v -6016 -3072 0
v -5888 -3072 0
v -6400 -3200 0
v -6528 -3200 0
v -6528 -3072 0
v -6400 -3072 0
v -6912 -3200 0
v -7040 -3200 0
v -7040 -3072 0
v -6912 -3072 0
v -7296 -3200 0
v -7424 -3200 0
v -7424 -3072 0
v -7296 -3072 0

# Texture cooridinates (Count = 10)
vt 0.5 0.8
vt 0.25 0.8
vt 0.25 1
vt 0.5 1
vt 0.75 0.8
vt 1 0.8
vt 1 1
vt 0.75 1
vt 0 0.8
vt 0 1

# Normal
vn 0 0 -1

# Mesh description
g Lv1Tiles_mesh_0003

# Faces
f 1/1/1 2/2/1 3/3/1 4/4/1
f 5/5/1 6/6/1 7/7/1 8/8/1
f 9/5/1 10/6/1 11/7/1 12/8/1
f 13/5/1 14/6/1 15/7/1 16/8/1
f 17/1/1 18/5/1 19/8/1 20/4/1
f 21/5/1 22/6/1 23/7/1 24/8/1
f 25/9/1 26/2/1 27/3/1 28/10/1
f 29/9/1 30/2/1 31/3/1 32/10/1
f 33/2/1 34/1/1 35/4/1 36/3/1
f 37/5/1 38/6/1 39/7/1 40/8/1
f 41/9/1 42/2/1 43/3/1 44/10/1
f 45/2/1 46/1/1 47/4/1 48/3/1
f 49/9/1 50/2/1 51/3/1 52/10/1
f 53/5/1 54/6/1 55/7/1 56/8/1
f 57/2/1 58/1/1 59/4/1 60/3/1
f 61/5/1 62/6/1 63/7/1 64/8/1
f 65/9/1 66/2/1 67/3/1 68/10/1
f 69/2/1 70/1/1 71/4/1 72/3/1
f 73/9/1 74/2/1 75/3/1 76/10/1
f 77/1/1 78/5/1 79/8/1 80/4/1
f 81/2/1 82/1/1 83/4/1 84/3/1
f 85/1/1 86/5/1 87/8/1 88/4/1
f 89/1/1 90/5/1 91/8/1 92/4/1
f 93/1/1 94/5/1 95/8/1 96/4/1
f 97/1/1 98/5/1 99/8/1 100/4/1
f 101/1/1 102/5/1 103/8/1 104/4/1
f 105/5/1 106/6/1 107/7/1 108/8/1
f 109/5/1 110/6/1 111/7/1 112/8/1
f 113/5/1 114/6/1 115/7/1 116/8/1
f 117/5/1 118/6/1 119/7/1 120/8/1

