# Tiled2Unity generated file. Do not modify by hand.
# Wavefront file for 'Lv1Tiles_mesh_0002.obj'

# Vertices (Count = 24)
v -9600 -2304 0
v -9886 -2304 0
v -9886 -2065 0
v -9600 -2065 0
v -10112 -2304 0
v -10398 -2304 0
v -10398 -2065 0
v -10112 -2065 0
v -10624 -2304 0
v -10910 -2304 0
v -10910 -2065 0
v -10624 -2065 0
v -128 -2688 0
v -414 -2688 0
v -414 -2449 0
v -128 -2449 0
v -640 -2688 0
v -926 -2688 0
v -926 -2449 0
v -640 -2449 0
v -1152 -2688 0
v -1438 -2688 0
v -1438 -2449 0
v -1152 -2449 0

# Texture cooridinates (Count = 4)
vt 0 0
vt 1 0
vt 1 1
vt 0 1

# Normal
vn 0 0 -1

# Mesh description
g Lv1Tiles_mesh_0002

# Faces
f 1/1/1 2/2/1 3/3/1 4/4/1
f 5/1/1 6/2/1 7/3/1 8/4/1
f 9/1/1 10/2/1 11/3/1 12/4/1
f 13/1/1 14/2/1 15/3/1 16/4/1
f 17/1/1 18/2/1 19/3/1 20/4/1
f 21/1/1 22/2/1 23/3/1 24/4/1

