# Tiled2Unity generated file. Do not modify by hand.
# Wavefront file for 'MapTiles_mesh_0003.obj'

# Vertices (Count = 132)
v -4992 -2560 0
v -5120 -2560 0
v -5120 -2432 0
v -4992 -2432 0
v -5120 -2560 0
v -5248 -2560 0
v -5248 -2432 0
v -5120 -2432 0
v -5248 -2560 0
v -5376 -2560 0
v -5376 -2432 0
v -5248 -2432 0
v -2944 -2688 0
v -3072 -2688 0
v -3072 -2560 0
v -2944 -2560 0
v -3200 -2816 0
v -3328 -2816 0
v -3328 -2688 0
v -3200 -2688 0
v -5760 -2816 0
v -5888 -2816 0
v -5888 -2688 0
v -5760 -2688 0
v -6272 -2816 0
v -6400 -2816 0
v -6400 -2688 0
v -6272 -2688 0
v -7040 -2816 0
v -7168 -2816 0
v -7168 -2688 0
v -7040 -2688 0
v -7424 -2816 0
v -7552 -2816 0
v -7552 -2688 0
v -7424 -2688 0
v -1792 -2944 0
v -1920 -2944 0
v -1920 -2816 0
v -1792 -2816 0
v -5504 -2944 0
v -5632 -2944 0
v -5632 -2816 0
v -5504 -2816 0
v -5760 -2944 0
v -5888 -2944 0
v -5888 -2816 0
v -5760 -2816 0
v -5888 -2944 0
v -6016 -2944 0
v -6016 -2816 0
v -5888 -2816 0
v -6016 -2944 0
v -6144 -2944 0
v -6144 -2816 0
v -6016 -2816 0
v -6272 -2944 0
v -6400 -2944 0
v -6400 -2816 0
v -6272 -2816 0
v -6528 -2944 0
v -6656 -2944 0
v -6656 -2816 0
v -6528 -2816 0
v -6656 -2944 0
v -6784 -2944 0
v -6784 -2816 0
v -6656 -2816 0
v -6784 -2944 0
v -6912 -2944 0
v -6912 -2816 0
v -6784 -2816 0
v -6912 -2944 0
v -7040 -2944 0
v -7040 -2816 0
v -6912 -2816 0
v -7040 -2944 0
v -7168 -2944 0
v -7168 -2816 0
v -7040 -2816 0
v -7296 -2944 0
v -7424 -2944 0
v -7424 -2816 0
v -7296 -2816 0
v -7552 -2944 0
v -7680 -2944 0
v -7680 -2816 0
v -7552 -2816 0
v -1408 -3072 0
v -1536 -3072 0
v -1536 -2944 0
v -1408 -2944 0
v -1920 -3072 0
v -2048 -3072 0
v -2048 -2944 0
v -1920 -2944 0
v -5632 -3072 0
v -5760 -3072 0
v -5760 -2944 0
v -5632 -2944 0
v -6144 -3072 0
v -6272 -3072 0
v -6272 -2944 0
v -6144 -2944 0
v -6656 -3072 0
v -6784 -3072 0
v -6784 -2944 0
v -6656 -2944 0
v -7168 -3072 0
v -7296 -3072 0
v -7296 -2944 0
v -7168 -2944 0
v -7424 -3072 0
v -7552 -3072 0
v -7552 -2944 0
v -7424 -2944 0
v -5888 -3200 0
v -6016 -3200 0
v -6016 -3072 0
v -5888 -3072 0
v -6400 -3200 0
v -6528 -3200 0
v -6528 -3072 0
v -6400 -3072 0
v -6912 -3200 0
v -7040 -3200 0
v -7040 -3072 0
v -6912 -3072 0
v -7296 -3200 0
v -7424 -3200 0
v -7424 -3072 0
v -7296 -3072 0

# Texture cooridinates (Count = 18)
vt 0.25 0
vt 0.5 0
vt 0.5 0.2
vt 0.25 0.2
vt 0.75 0
vt 0.75 0.2
vt 1 0
vt 1 0.2
vt 0.5 0.8
vt 0.25 0.8
vt 0.25 1
vt 0.5 1
vt 0.75 0.8
vt 1 0.8
vt 1 1
vt 0.75 1
vt 0 0.8
vt 0 1

# Normal
vn 0 0 -1

# Mesh description
g MapTiles_mesh_0003

# Faces
f 1/1/1 2/2/1 3/3/1 4/4/1
f 5/2/1 6/5/1 7/6/1 8/3/1
f 9/5/1 10/7/1 11/8/1 12/6/1
f 13/9/1 14/10/1 15/11/1 16/12/1
f 17/13/1 18/14/1 19/15/1 20/16/1
f 21/13/1 22/14/1 23/15/1 24/16/1
f 25/13/1 26/14/1 27/15/1 28/16/1
f 29/9/1 30/13/1 31/16/1 32/12/1
f 33/13/1 34/14/1 35/15/1 36/16/1
f 37/17/1 38/10/1 39/11/1 40/18/1
f 41/17/1 42/10/1 43/11/1 44/18/1
f 45/10/1 46/9/1 47/12/1 48/11/1
f 49/13/1 50/14/1 51/15/1 52/16/1
f 53/17/1 54/10/1 55/11/1 56/18/1
f 57/10/1 58/9/1 59/12/1 60/11/1
f 61/17/1 62/10/1 63/11/1 64/18/1
f 65/13/1 66/14/1 67/15/1 68/16/1
f 69/10/1 70/9/1 71/12/1 72/11/1
f 73/13/1 74/14/1 75/15/1 76/16/1
f 77/17/1 78/10/1 79/11/1 80/18/1
f 81/10/1 82/9/1 83/12/1 84/11/1
f 85/17/1 86/10/1 87/11/1 88/18/1
f 89/9/1 90/13/1 91/16/1 92/12/1
f 93/10/1 94/9/1 95/12/1 96/11/1
f 97/9/1 98/13/1 99/16/1 100/12/1
f 101/9/1 102/13/1 103/16/1 104/12/1
f 105/9/1 106/13/1 107/16/1 108/12/1
f 109/9/1 110/13/1 111/16/1 112/12/1
f 113/9/1 114/13/1 115/16/1 116/12/1
f 117/13/1 118/14/1 119/15/1 120/16/1
f 121/13/1 122/14/1 123/15/1 124/16/1
f 125/13/1 126/14/1 127/15/1 128/16/1
f 129/13/1 130/14/1 131/15/1 132/16/1

